<svg width="16" height="16" viewBox="0 0 16 16" fill="none" xmlns="http://www.w3.org/2000/svg">
<g clip-path="url(#clip0_6531_2319)">
<path d="M4.66659 9.00004C4.94436 9.00004 5.18059 8.90271 5.37525 8.70804C5.56992 8.51337 5.66703 8.27737 5.66659 8.00004C5.66659 7.72226 5.56925 7.48604 5.37459 7.29137C5.17992 7.09671 4.94392 6.9996 4.66659 7.00004C4.38881 7.00004 4.15259 7.09737 3.95792 7.29204C3.76325 7.48671 3.66614 7.72271 3.66659 8.00004C3.66659 8.27782 3.76392 8.51404 3.95859 8.70871C4.15325 8.90337 4.38925 9.00049 4.66659 9.00004ZM7.99992 9.00004C8.2777 9.00004 8.51392 8.90271 8.70859 8.70804C8.90325 8.51337 9.00036 8.27737 8.99992 8.00004C8.99992 7.72226 8.90259 7.48604 8.70792 7.29137C8.51325 7.09671 8.27725 6.9996 7.99992 7.00004C7.72214 7.00004 7.48592 7.09737 7.29125 7.29204C7.09659 7.48671 6.99947 7.72271 6.99992 8.00004C6.99992 8.27782 7.09725 8.51404 7.29192 8.70871C7.48659 8.90337 7.72259 9.00049 7.99992 9.00004ZM11.3333 9.00004C11.611 9.00004 11.8473 8.90271 12.0419 8.70804C12.2366 8.51337 12.3337 8.27737 12.3333 8.00004C12.3333 7.72226 12.2359 7.48604 12.0413 7.29137C11.8466 7.09671 11.6106 6.9996 11.3333 7.00004C11.0555 7.00004 10.8193 7.09737 10.6246 7.29204C10.4299 7.48671 10.3328 7.72271 10.3333 8.00004C10.3333 8.27782 10.4306 8.51404 10.6253 8.70871C10.8199 8.90337 11.0559 9.00049 11.3333 9.00004ZM7.99992 14.6667C7.0777 14.6667 6.21103 14.4916 5.39992 14.1414C4.58881 13.7912 3.88325 13.3163 3.28325 12.7167C2.68325 12.1167 2.20836 11.4112 1.85859 10.6C1.50881 9.78893 1.3337 8.92226 1.33325 8.00004C1.33325 7.07782 1.50836 6.21115 1.85859 5.40004C2.20881 4.58893 2.6837 3.88337 3.28325 3.28337C3.88325 2.68337 4.58881 2.20849 5.39992 1.85871C6.21103 1.50893 7.0777 1.33382 7.99992 1.33337C8.92214 1.33337 9.78881 1.50849 10.5999 1.85871C11.411 2.20893 12.1166 2.68382 12.7166 3.28337C13.3166 3.88337 13.7917 4.58893 14.1419 5.40004C14.4921 6.21115 14.667 7.07782 14.6666 8.00004C14.6666 8.92226 14.4915 9.78893 14.1413 10.6C13.791 11.4112 13.3161 12.1167 12.7166 12.7167C12.1166 13.3167 11.411 13.7918 10.5999 14.142C9.78881 14.4923 8.92214 14.6672 7.99992 14.6667ZM7.99992 13.3334C9.48881 13.3334 10.7499 12.8167 11.7833 11.7834C12.8166 10.75 13.3333 9.48893 13.3333 8.00004C13.3333 6.51115 12.8166 5.25004 11.7833 4.21671C10.7499 3.18337 9.48881 2.66671 7.99992 2.66671C6.51103 2.66671 5.24992 3.18337 4.21659 4.21671C3.18325 5.25004 2.66659 6.51115 2.66659 8.00004C2.66659 9.48893 3.18325 10.75 4.21659 11.7834C5.24992 12.8167 6.51103 13.3334 7.99992 13.3334Z" fill="#101828"/>
</g>
<defs>
<clipPath id="clip0_6531_2319">
<rect width="16" height="16" fill="white"/>
</clipPath>
</defs>
</svg>
