<svg width="240" height="240" viewBox="0 0 240 240" fill="none" xmlns="http://www.w3.org/2000/svg">
<g clip-path="url(#clip0_6531_2315)">
<g clip-path="url(#clip1_6531_2315)">
<path d="M120 6C134.971 6 149.795 8.9487 163.626 14.6777C177.457 20.4068 190.024 28.804 200.61 39.3898C211.196 49.9757 219.593 62.543 225.322 76.3741C231.051 90.2052 234 105.029 234 120C234 134.971 231.051 149.795 225.322 163.626C219.593 177.457 211.196 190.024 200.61 200.61C190.024 211.196 177.457 219.593 163.626 225.322C149.795 231.051 134.971 234 120 234C105.029 234 90.2052 231.051 76.374 225.322C62.5429 219.593 49.9757 211.196 39.3898 200.61C28.8039 190.024 20.4067 177.457 14.6777 163.626C8.94868 149.795 5.99999 134.971 6 120C6.00001 105.029 8.94871 90.2051 14.6778 76.374C20.4068 62.5429 28.804 49.9757 39.3899 39.3898C49.9758 28.8039 62.543 20.4067 76.3742 14.6777C90.2053 8.94868 105.029 5.99999 120 6Z" stroke="#F2F4F7" stroke-width="12" stroke-linecap="round" stroke-linejoin="round"/>
<path d="M120 6C146.093 6 171.396 14.9509 191.684 31.3583C211.973 47.7657 226.019 70.6364 231.478 96.1518C236.936 121.667 233.476 148.283 221.676 171.555C209.876 194.827 190.45 213.347 166.641 224.022C142.832 234.698 116.082 236.882 90.856 230.212C65.6303 223.541 43.4564 208.419 28.0365 187.37C12.6166 166.321 4.88409 140.62 6.12998 114.557C7.37587 88.4937 17.5247 63.6469 34.8821 44.1649" stroke="#065986" stroke-width="12" stroke-linecap="round" stroke-linejoin="round"/>
<path d="M120 24C132.607 24 145.09 26.4831 156.738 31.3076C168.385 36.132 178.968 43.2033 187.882 52.1178C196.797 61.0322 203.868 71.6151 208.692 83.2624C213.517 94.9097 216 107.393 216 120C216 132.607 213.517 145.09 208.692 156.738C203.868 168.385 196.797 178.968 187.882 187.882C178.968 196.797 168.385 203.868 156.738 208.692C145.09 213.517 132.607 216 120 216C107.393 216 94.9096 213.517 83.2624 208.692C71.6151 203.868 61.0321 196.797 52.1177 187.882C43.2033 178.968 36.132 168.385 31.3075 156.738C26.4831 145.09 24 132.607 24 120C24 107.393 26.4831 94.9096 31.3076 83.2623C36.132 71.6151 43.2034 61.0321 52.1178 52.1177C61.0322 43.2033 71.6152 36.132 83.2624 31.3075C94.9097 26.4831 107.393 24 120 24Z" stroke="#F2F4F7" stroke-width="12" stroke-linecap="round" stroke-linejoin="round"/>
<path d="M120 24C134.725 24 149.253 27.3874 162.46 33.9002C175.666 40.413 187.198 49.8766 196.162 61.5589C205.126 73.2412 211.283 86.8291 214.155 101.271C217.028 115.714 216.54 130.623 212.729 144.847C208.918 159.07 201.886 172.226 192.177 183.297C182.468 194.368 170.342 203.057 156.738 208.692C143.133 214.328 128.415 216.758 113.721 215.794C99.0276 214.831 84.7524 210.501 72 203.138" stroke="#0086C9" stroke-width="12" stroke-linecap="round" stroke-linejoin="round"/>
<path d="M120 42C130.243 42 140.386 44.0175 149.849 47.9374C159.313 51.8573 167.911 57.6027 175.154 64.8457C182.397 72.0886 188.143 80.6873 192.063 90.1507C195.982 99.6141 198 109.757 198 120C198 130.243 195.982 140.386 192.063 149.849C188.143 159.313 182.397 167.911 175.154 175.154C167.911 182.397 159.313 188.143 149.849 192.063C140.386 195.982 130.243 198 120 198C109.757 198 99.6141 195.982 90.1507 192.063C80.6873 188.143 72.0886 182.397 64.8456 175.154C57.6027 167.911 51.8572 159.313 47.9374 149.849C44.0175 140.386 42 130.243 42 120C42 109.757 44.0175 99.614 47.9374 90.1507C51.8573 80.6873 57.6027 72.0886 64.8457 64.8456C72.0887 57.6027 80.6873 51.8572 90.1507 47.9374C99.6141 44.0175 109.757 42 120 42Z" stroke="#F2F4F7" stroke-width="12" stroke-linecap="round" stroke-linejoin="round"/>
<path d="M120 42C135.427 42 150.507 46.5746 163.334 55.1454C176.162 63.7161 186.159 75.8981 192.063 90.1507C197.966 104.403 199.511 120.087 196.501 135.217C193.492 150.348 186.063 164.246 175.154 175.154" stroke="#36BFFA" stroke-width="12" stroke-linecap="round" stroke-linejoin="round"/>
<path d="M68.4449 125.646V122.504L77.7027 107.877H80.3235V112.351H78.7255L72.4932 122.227V122.397H85.4158V125.646H68.4449ZM78.8533 129.695V124.688L78.896 123.281V107.877H82.6246V129.695H78.8533ZM96.4048 129.993C94.9843 129.993 93.7131 129.727 92.591 129.194C91.4688 128.654 90.5774 127.916 89.9169 126.978C89.2634 126.041 88.9154 124.968 88.8728 123.761H92.7081C92.7791 124.656 93.1661 125.387 93.8693 125.955C94.5724 126.516 95.4176 126.797 96.4048 126.797C97.1789 126.797 97.8679 126.619 98.4715 126.264C99.0752 125.909 99.5511 125.416 99.8991 124.783C100.247 124.151 100.418 123.43 100.411 122.621C100.418 121.797 100.244 121.065 99.8884 120.426C99.5333 119.787 99.0468 119.286 98.4289 118.924C97.811 118.555 97.1008 118.37 96.2983 118.37C95.6448 118.363 95.0021 118.484 94.37 118.732C93.7379 118.981 93.2372 119.308 92.8679 119.712L89.299 119.127L90.4389 107.877H103.095V111.179H93.7095L93.0809 116.964H93.2088C93.6136 116.488 94.1853 116.094 94.924 115.781C95.6626 115.462 96.4723 115.302 97.3529 115.302C98.674 115.302 99.8529 115.614 100.89 116.239C101.927 116.857 102.744 117.71 103.34 118.796C103.937 119.883 104.235 121.126 104.235 122.525C104.235 123.967 103.901 125.252 103.234 126.381C102.573 127.504 101.653 128.388 100.474 129.034C99.3025 129.673 97.946 129.993 96.4048 129.993ZM115.794 129.993C114.75 129.986 113.731 129.805 112.737 129.45C111.742 129.087 110.847 128.502 110.052 127.692C109.256 126.875 108.624 125.792 108.156 124.443C107.687 123.086 107.456 121.406 107.463 119.404C107.463 117.536 107.662 115.87 108.06 114.407C108.457 112.944 109.029 111.708 109.775 110.7C110.521 109.684 111.419 108.91 112.47 108.377C113.528 107.845 114.711 107.578 116.018 107.578C117.389 107.578 118.603 107.848 119.661 108.388C120.727 108.928 121.586 109.666 122.239 110.604C122.893 111.534 123.298 112.585 123.454 113.757H119.565C119.367 112.919 118.958 112.252 118.34 111.754C117.729 111.25 116.955 110.998 116.018 110.998C114.505 110.998 113.34 111.655 112.523 112.969C111.714 114.283 111.305 116.087 111.298 118.381H111.447C111.796 117.756 112.247 117.22 112.8 116.772C113.354 116.325 113.979 115.98 114.675 115.739C115.379 115.49 116.121 115.366 116.902 115.366C118.18 115.366 119.327 115.671 120.343 116.282C121.366 116.893 122.175 117.734 122.772 118.807C123.369 119.872 123.663 121.094 123.656 122.472C123.663 123.906 123.337 125.195 122.676 126.339C122.016 127.475 121.096 128.37 119.917 129.024C118.738 129.677 117.364 130 115.794 129.993ZM115.773 126.797C116.547 126.797 117.239 126.609 117.85 126.232C118.461 125.856 118.944 125.348 119.299 124.709C119.654 124.07 119.828 123.352 119.821 122.557C119.828 121.776 119.658 121.069 119.31 120.437C118.969 119.805 118.497 119.304 117.893 118.935C117.289 118.565 116.6 118.381 115.826 118.381C115.251 118.381 114.715 118.491 114.217 118.711C113.72 118.931 113.287 119.237 112.918 119.627C112.548 120.011 112.257 120.458 112.044 120.97C111.838 121.474 111.732 122.014 111.724 122.589C111.732 123.349 111.909 124.048 112.257 124.688C112.605 125.327 113.085 125.838 113.695 126.222C114.306 126.605 114.999 126.797 115.773 126.797ZM134.741 129.695V113.331H138.427V116.112H138.619C138.96 115.174 139.525 114.443 140.313 113.917C141.101 113.384 142.042 113.118 143.136 113.118C144.244 113.118 145.178 113.388 145.938 113.928C146.705 114.46 147.245 115.188 147.557 116.112H147.728C148.09 115.203 148.701 114.478 149.56 113.938C150.427 113.391 151.453 113.118 152.639 113.118C154.145 113.118 155.373 113.594 156.325 114.546C157.277 115.497 157.753 116.886 157.753 118.711V129.695H153.885V119.308C153.885 118.292 153.615 117.55 153.076 117.081C152.536 116.605 151.875 116.367 151.094 116.367C150.164 116.367 149.436 116.658 148.91 117.241C148.392 117.816 148.133 118.565 148.133 119.489V129.695H144.351V119.148C144.351 118.303 144.095 117.628 143.584 117.124C143.079 116.619 142.419 116.367 141.602 116.367C141.048 116.367 140.544 116.509 140.089 116.793C139.635 117.07 139.272 117.465 139.003 117.976C138.733 118.48 138.598 119.07 138.598 119.744V129.695H134.741ZM161.665 129.695V113.331H165.522V129.695H161.665ZM163.604 111.009C162.993 111.009 162.468 110.806 162.027 110.401C161.587 109.989 161.367 109.496 161.367 108.921C161.367 108.338 161.587 107.845 162.027 107.44C162.468 107.028 162.993 106.822 163.604 106.822C164.222 106.822 164.747 107.028 165.181 107.44C165.621 107.845 165.841 108.338 165.841 108.921C165.841 109.496 165.621 109.989 165.181 110.401C164.747 110.806 164.222 111.009 163.604 111.009ZM173.344 107.877V129.695H169.487V107.877H173.344Z" fill="#101828"/>
</g>
</g>
<defs>
<clipPath id="clip0_6531_2315">
<rect width="240" height="240" fill="white"/>
</clipPath>
<clipPath id="clip1_6531_2315">
<rect width="240" height="240" fill="white"/>
</clipPath>
</defs>
</svg>
