<svg width="25" height="24" viewBox="0 0 25 24" fill="none" xmlns="http://www.w3.org/2000/svg">
<g clip-path="url(#clip0_6532_2328)">
<path d="M10.2545 6.87225C10.2545 6.30225 10.7165 5.841 11.2858 5.841H13.7645C17.1778 5.841 19.973 8.56875 19.973 11.9685C19.973 15.3668 17.1778 18.0953 13.7645 18.0953H11.285C10.715 18.0953 10.2538 17.6333 10.2538 17.064V6.8715L10.2545 6.87225ZM12.317 15.939C12.317 15.9908 12.359 16.0328 12.4108 16.0328H13.7645C16.07 16.0328 17.9105 14.1975 17.9105 11.9678C17.9105 9.738 16.07 7.90275 13.7645 7.90275H12.41C12.3977 7.90275 12.3854 7.9052 12.374 7.90996C12.3626 7.91472 12.3522 7.92169 12.3435 7.93048C12.3348 7.93926 12.3279 7.94969 12.3232 7.96115C12.3185 7.97261 12.3162 7.98488 12.3163 7.99725L12.317 15.939ZM7.53878 5.9175C7.67424 5.91721 7.80842 5.94362 7.93366 5.99523C8.05889 6.04684 8.17273 6.12263 8.26865 6.21827C8.36457 6.31391 8.44069 6.42752 8.49266 6.55261C8.54463 6.67769 8.57144 6.8118 8.57153 6.94725L8.58203 16.986C8.58233 17.2595 8.47397 17.5219 8.28078 17.7155C8.0876 17.9091 7.82541 18.0181 7.55191 18.0184C7.2784 18.0187 7.01598 17.9103 6.82238 17.7171C6.62877 17.5239 6.51983 17.2618 6.51953 16.9883L6.50903 6.9495C6.50884 6.81408 6.53532 6.67994 6.58696 6.55475C6.6386 6.42955 6.7144 6.31576 6.81002 6.21986C6.90564 6.12396 7.01921 6.04783 7.14426 5.99583C7.2693 5.94382 7.40336 5.9177 7.53878 5.9175Z" fill="#F4F5F7"/>
<path d="M5 0.75C4.50754 0.75 4.01991 0.846997 3.56494 1.03545C3.10997 1.22391 2.69657 1.50013 2.34835 1.84835C1.64509 2.55161 1.25 3.50544 1.25 4.5V19.5C1.25 20.4946 1.64509 21.4484 2.34835 22.1517C2.69657 22.4999 3.10997 22.7761 3.56494 22.9645C4.01991 23.153 4.50754 23.25 5 23.25H20C20.9946 23.25 21.9484 22.8549 22.6517 22.1517C23.3549 21.4484 23.75 20.4946 23.75 19.5V4.5C23.75 4.00754 23.653 3.51991 23.4645 3.06494C23.2761 2.60997 22.9999 2.19657 22.6517 1.84835C22.3034 1.50013 21.89 1.22391 21.4351 1.03545C20.9801 0.846997 20.4925 0.75 20 0.75H5ZM2.75 4.5C2.75 3.90326 2.98705 3.33097 3.40901 2.90901C3.83097 2.48705 4.40326 2.25 5 2.25H20C20.5967 2.25 21.169 2.48705 21.591 2.90901C22.0129 3.33097 22.25 3.90326 22.25 4.5V19.5C22.25 20.0967 22.0129 20.669 21.591 21.091C21.169 21.5129 20.5967 21.75 20 21.75H5C4.40326 21.75 3.83097 21.5129 3.40901 21.091C2.98705 20.669 2.75 20.0967 2.75 19.5V4.5Z" fill="#F4F5F7"/>
</g>
<defs>
<clipPath id="clip0_6532_2328">
<rect width="24" height="24" fill="white" transform="translate(0.5)"/>
</clipPath>
</defs>
</svg>
