<svg width="24" height="24" viewBox="0 0 24 24" fill="none" xmlns="http://www.w3.org/2000/svg">
<g clip-path="url(#clip0_6530_2236)">
<g clip-path="url(#clip1_6530_2236)">
<path d="M9.75453 6.87225C9.75453 6.30225 10.2165 5.841 10.7858 5.841H13.2645C16.6778 5.841 19.473 8.56875 19.473 11.9685C19.473 15.3668 16.6778 18.0953 13.2645 18.0953H10.785C10.215 18.0953 9.75378 17.6333 9.75378 17.064V6.8715L9.75453 6.87225ZM11.817 15.939C11.817 15.9908 11.859 16.0328 11.9108 16.0328H13.2645C15.57 16.0328 17.4105 14.1975 17.4105 11.9678C17.4105 9.738 15.57 7.90275 13.2645 7.90275H11.91C11.8977 7.90275 11.8854 7.9052 11.874 7.90996C11.8626 7.91472 11.8522 7.92169 11.8435 7.93048C11.8348 7.93926 11.8279 7.94969 11.8232 7.96115C11.8185 7.97261 11.8162 7.98488 11.8163 7.99725L11.817 15.939ZM7.03878 5.9175C7.17424 5.91721 7.30842 5.94362 7.43366 5.99523C7.55889 6.04684 7.67273 6.12263 7.76865 6.21827C7.86457 6.31391 7.94069 6.42752 7.99266 6.55261C8.04463 6.67769 8.07144 6.8118 8.07153 6.94725L8.08203 16.986C8.08233 17.2595 7.97397 17.5219 7.78078 17.7155C7.5876 17.9091 7.32541 18.0181 7.05191 18.0184C6.7784 18.0187 6.51598 17.9103 6.32238 17.7171C6.12877 17.5239 6.01983 17.2618 6.01953 16.9883L6.00903 6.9495C6.00884 6.81408 6.03532 6.67994 6.08696 6.55475C6.1386 6.42955 6.2144 6.31576 6.31002 6.21986C6.40564 6.12396 6.51921 6.04783 6.64426 5.99583C6.7693 5.94382 6.90336 5.9177 7.03878 5.9175Z" fill="#F4F5F7"/>
<path d="M4.5 0.75C4.00754 0.75 3.51991 0.846997 3.06494 1.03545C2.60997 1.22391 2.19657 1.50013 1.84835 1.84835C1.14509 2.55161 0.75 3.50544 0.75 4.5V19.5C0.75 20.4946 1.14509 21.4484 1.84835 22.1516C2.19657 22.4999 2.60997 22.7761 3.06494 22.9645C3.51991 23.153 4.00754 23.25 4.5 23.25H19.5C20.4946 23.25 21.4484 22.8549 22.1516 22.1516C22.8549 21.4484 23.25 20.4946 23.25 19.5V4.5C23.25 4.00754 23.153 3.51991 22.9645 3.06494C22.7761 2.60997 22.4999 2.19657 22.1516 1.84835C21.8034 1.50013 21.39 1.22391 20.9351 1.03545C20.4801 0.846997 19.9925 0.75 19.5 0.75H4.5ZM2.25 4.5C2.25 3.90326 2.48705 3.33097 2.90901 2.90901C3.33097 2.48705 3.90326 2.25 4.5 2.25H19.5C20.0967 2.25 20.669 2.48705 21.091 2.90901C21.5129 3.33097 21.75 3.90326 21.75 4.5V19.5C21.75 20.0967 21.5129 20.669 21.091 21.091C20.669 21.5129 20.0967 21.75 19.5 21.75H4.5C3.90326 21.75 3.33097 21.5129 2.90901 21.091C2.48705 20.669 2.25 20.0967 2.25 19.5V4.5Z" fill="#F4F5F7"/>
</g>
</g>
<defs>
<clipPath id="clip0_6530_2236">
<rect width="24" height="24" fill="white"/>
</clipPath>
<clipPath id="clip1_6530_2236">
<rect width="24" height="24" fill="white"/>
</clipPath>
</defs>
</svg>
