<svg width="36" height="36" viewBox="0 0 36 36" fill="none" xmlns="http://www.w3.org/2000/svg">
<g clip-path="url(#clip0_6533_2336)">
<path fill-rule="evenodd" clip-rule="evenodd" d="M9.6301 7.24502C9.31021 6.94694 8.8871 6.78466 8.44993 6.79238C8.01275 6.80009 7.59563 6.97719 7.28645 7.28637C6.97727 7.59555 6.80017 8.01267 6.79246 8.44984C6.78474 8.88702 6.94702 9.31013 7.2451 9.63002L15.6151 18L7.2451 26.37C7.07931 26.5245 6.94633 26.7108 6.85409 26.9178C6.76186 27.1248 6.71227 27.3483 6.70827 27.5748C6.70427 27.8014 6.74595 28.0265 6.83083 28.2366C6.9157 28.4467 7.04202 28.6376 7.20227 28.7979C7.36251 28.9581 7.55338 29.0844 7.76351 29.1693C7.97363 29.2542 8.1987 29.2959 8.42528 29.2919C8.65186 29.2879 8.87531 29.2383 9.08231 29.146C9.28931 29.0538 9.47561 28.9208 9.6301 28.755L18.0001 20.385L26.3701 28.755C26.5246 28.9208 26.7109 29.0538 26.9179 29.146C27.1249 29.2383 27.3483 29.2879 27.5749 29.2919C27.8015 29.2959 28.0266 29.2542 28.2367 29.1693C28.4468 29.0844 28.6377 28.9581 28.7979 28.7979C28.9582 28.6376 29.0845 28.4467 29.1694 28.2366C29.2542 28.0265 29.2959 27.8014 29.2919 27.5748C29.2879 27.3483 29.2383 27.1248 29.1461 26.9178C29.0539 26.7108 28.9209 26.5245 28.7551 26.37L20.3851 18L28.7551 9.63002C29.0532 9.31013 29.2155 8.88702 29.2077 8.44984C29.2 8.01267 29.0229 7.59555 28.7137 7.28637C28.4046 6.97719 27.9875 6.80009 27.5503 6.79238C27.1131 6.78466 26.69 6.94694 26.3701 7.24502L18.0001 15.615L9.6301 7.24502Z" fill="black"/>
</g>
<defs>
<clipPath id="clip0_6533_2336">
<rect width="36" height="36" fill="white"/>
</clipPath>
</defs>
</svg>
