<svg width="62" height="62" viewBox="0 0 62 62" fill="none" xmlns="http://www.w3.org/2000/svg">
<g clip-path="url(#clip0_6532_2327)">
<rect width="62" height="62" fill="white"/>
<path fill-rule="evenodd" clip-rule="evenodd" d="M30.4364 62C13.5756 61.6994 0 47.9364 0 31.0025C0 13.8803 13.8792 0 31 0C48.1208 0 62 13.8803 62 31.0025C62 47.842 48.5754 61.5457 31.8455 61.9937L31.8455 61.7232L31.8454 57.7643V54.9443L31.8455 35.512H31.8953V35.4752L44.5351 25.6476L44.5592 29.1988L34.6636 36.8928V54.6805C46.1543 52.9169 54.9545 42.9874 54.9545 31.0024C54.9545 17.7716 44.2297 7.04595 31 7.04595C17.7703 7.04595 7.04544 17.7716 7.04544 31.0024C7.04544 42.5924 15.2751 52.2601 26.2091 54.4797V57.3499C13.709 55.0915 4.22727 44.1543 4.22727 31.0025C4.22727 16.2151 16.2138 4.22757 31 4.22757C45.7862 4.22757 57.7727 16.2151 57.7727 31.0025C57.7727 44.5469 47.7165 55.7424 34.6636 57.5288V58.9506C48.4971 57.1546 59.1818 45.3264 59.1818 31.0025C59.1818 15.4368 46.5644 2.81839 31 2.81839C15.4356 2.81839 2.81818 15.4368 2.81818 31.0025C2.81818 45.4236 13.6483 57.3149 27.6182 58.9858V35.63L19.5182 41.9278L17.7885 43.2626L17.7885 39.7027L30.4282 29.8751L30.4523 33.4264L30.4364 33.4388V60.5958L30.4364 62ZM37.4451 27.0812C37.4451 28.6378 36.1833 29.8997 34.6269 29.8997C33.0704 29.8997 31.8087 28.6378 31.8087 27.0812C31.8087 25.5247 33.0704 24.2628 34.6269 24.2628C36.1833 24.2628 37.4451 25.5247 37.4451 27.0812ZM26.0621 25.7088C28.3967 25.7088 30.2893 23.816 30.2893 21.4812C30.2893 19.1463 28.3967 17.2536 26.0621 17.2536C23.7274 17.2536 21.8348 19.1463 21.8348 21.4812C21.8348 23.816 23.7274 25.7088 26.0621 25.7088Z" fill="#1ECF02"/>
</g>
<defs>
<clipPath id="clip0_6532_2327">
<rect width="62" height="62" fill="white"/>
</clipPath>
</defs>
</svg>
