<svg width="24" height="25" viewBox="0 0 24 25" fill="none" xmlns="http://www.w3.org/2000/svg">
<g clip-path="url(#clip0_6530_2237)">
<path d="M9.75453 7.29889C9.75453 6.72889 10.2165 6.26764 10.7858 6.26764H13.2645C16.6778 6.26764 19.473 8.99539 19.473 12.3951C19.473 15.7934 16.6778 18.5219 13.2645 18.5219H10.785C10.215 18.5219 9.75378 18.0599 9.75378 17.4906V7.29814L9.75453 7.29889ZM11.817 16.3656C11.817 16.4174 11.859 16.4594 11.9108 16.4594H13.2645C15.57 16.4594 17.4105 14.6241 17.4105 12.3944C17.4105 10.1646 15.57 8.32939 13.2645 8.32939H11.91C11.8977 8.32939 11.8854 8.33184 11.874 8.3366C11.8626 8.34135 11.8522 8.34833 11.8435 8.35711C11.8348 8.3659 11.8279 8.37632 11.8232 8.38778C11.8185 8.39924 11.8162 8.41151 11.8163 8.42389L11.817 16.3656ZM7.03878 6.34414C7.17424 6.34384 7.30842 6.37025 7.43366 6.42186C7.55889 6.47347 7.67273 6.54926 7.76865 6.6449C7.86457 6.74054 7.94069 6.85416 7.99266 6.97924C8.04463 7.10433 8.07144 7.23844 8.07153 7.37389L8.08203 17.4126C8.08233 17.6861 7.97397 17.9486 7.78078 18.1422C7.5876 18.3358 7.32541 18.4447 7.05191 18.445C6.7784 18.4453 6.51598 18.3369 6.32238 18.1438C6.12877 17.9506 6.01983 17.6884 6.01953 17.4149L6.00903 7.37614C6.00884 7.24071 6.03532 7.10657 6.08696 6.98138C6.1386 6.85619 6.2144 6.7424 6.31002 6.6465C6.40564 6.5506 6.51921 6.47447 6.64426 6.42246C6.7693 6.37045 6.90336 6.34434 7.03878 6.34414Z" fill="#F4F5F7"/>
<path d="M4.5 1.17664C4.00754 1.17664 3.51991 1.27363 3.06494 1.46209C2.60997 1.65054 2.19657 1.92677 1.84835 2.27499C1.14509 2.97825 0.75 3.93207 0.75 4.92664V19.9266C0.75 20.9212 1.14509 21.875 1.84835 22.5783C2.19657 22.9265 2.60997 23.2027 3.06494 23.3912C3.51991 23.5796 4.00754 23.6766 4.5 23.6766H19.5C20.4946 23.6766 21.4484 23.2815 22.1517 22.5783C22.8549 21.875 23.25 20.9212 23.25 19.9266V4.92664C23.25 4.43418 23.153 3.94654 22.9645 3.49157C22.7761 3.0366 22.4999 2.6232 22.1517 2.27499C21.8034 1.92677 21.39 1.65054 20.9351 1.46209C20.4801 1.27363 19.9925 1.17664 19.5 1.17664H4.5ZM2.25 4.92664C2.25 4.3299 2.48705 3.7576 2.90901 3.33565C3.33097 2.91369 3.90326 2.67664 4.5 2.67664H19.5C20.0967 2.67664 20.669 2.91369 21.091 3.33565C21.5129 3.7576 21.75 4.3299 21.75 4.92664V19.9266C21.75 20.5234 21.5129 21.0957 21.091 21.5176C20.669 21.9396 20.0967 22.1766 19.5 22.1766H4.5C3.90326 22.1766 3.33097 21.9396 2.90901 21.5176C2.48705 21.0957 2.25 20.5234 2.25 19.9266V4.92664Z" fill="#F4F5F7"/>
</g>
<defs>
<clipPath id="clip0_6530_2237">
<rect width="24" height="24" fill="white" transform="translate(0 0.426636)"/>
</clipPath>
</defs>
</svg>
