<svg width="23" height="23" viewBox="0 0 23 23" fill="none" xmlns="http://www.w3.org/2000/svg">
<g clip-path="url(#clip0_6533_2350)">
<path fill-rule="evenodd" clip-rule="evenodd" d="M3.33787 0.452907C3.01797 0.154827 2.59487 -0.00745058 2.15769 0.000262906C1.72051 0.00797639 1.3034 0.185078 0.994216 0.494258C0.685037 0.803437 0.507935 1.22055 0.500222 1.65773C0.492508 2.09491 0.654785 2.51801 0.952865 2.83791L9.32287 11.2079L0.952865 19.5779C0.78707 19.7324 0.65409 19.9187 0.561858 20.1257C0.469626 20.3327 0.420032 20.5562 0.416034 20.7827C0.412036 21.0093 0.453717 21.2344 0.538589 21.4445C0.623461 21.6546 0.749787 21.8455 0.910029 22.0057C1.07027 22.166 1.26115 22.2923 1.47127 22.3772C1.68139 22.4621 1.90646 22.5037 2.13304 22.4997C2.35962 22.4957 2.58308 22.4461 2.79008 22.3539C2.99707 22.2617 3.18338 22.1287 3.33787 21.9629L11.7079 13.5929L20.0779 21.9629C20.2324 22.1287 20.4187 22.2617 20.6257 22.3539C20.8327 22.4461 21.0561 22.4957 21.2827 22.4997C21.5093 22.5037 21.7343 22.4621 21.9445 22.3772C22.1546 22.2923 22.3455 22.166 22.5057 22.0057C22.6659 21.8455 22.7923 21.6546 22.8771 21.4445C22.962 21.2344 23.0037 21.0093 22.9997 20.7827C22.9957 20.5562 22.9461 20.3327 22.8539 20.1257C22.7616 19.9187 22.6287 19.7324 22.4629 19.5779L14.0929 11.2079L22.4629 2.83791C22.7609 2.51801 22.9232 2.09491 22.9155 1.65773C22.9078 1.22055 22.7307 0.803437 22.4215 0.494258C22.1123 0.185078 21.6952 0.00797639 21.258 0.000262906C20.8209 -0.00745058 20.3978 0.154827 20.0779 0.452907L11.7079 8.82291L3.33787 0.452907Z" fill="black"/>
</g>
<defs>
<clipPath id="clip0_6533_2350">
<rect width="22.5842" height="22.5" fill="white" transform="translate(0.415771)"/>
</clipPath>
</defs>
</svg>
