<svg width="272" height="223" viewBox="0 0 272 223" fill="none" xmlns="http://www.w3.org/2000/svg">
<g clip-path="url(#clip0_6531_2305)">
<path d="M229.501 134V123.818H235.392V124.653H230.43V128.487H234.93V129.322H230.43V134H229.501ZM237.704 134V123.818H243.61V124.653H238.634V128.487H243.297V129.322H238.634V133.165H243.71V134H237.704ZM246.031 123.818L249.213 132.792H249.303L252.484 123.818H253.459L249.755 134H248.761L245.057 123.818H246.031Z" fill="#667085"/>
<path d="M183.552 195.818H184.482V203.161C184.478 203.824 184.359 204.378 184.124 204.822C183.888 205.263 183.564 205.592 183.149 205.811C182.735 206.03 182.259 206.139 181.722 206.139C181.195 206.139 180.725 206.041 180.311 205.846C179.896 205.65 179.57 205.375 179.331 205.021C179.096 204.666 178.978 204.25 178.978 203.773H179.893C179.893 204.074 179.972 204.341 180.132 204.573C180.291 204.802 180.508 204.981 180.783 205.11C181.061 205.239 181.374 205.304 181.722 205.304C182.084 205.304 182.4 205.228 182.672 205.075C182.947 204.923 183.163 204.689 183.318 204.374C183.474 204.056 183.552 203.652 183.552 203.161V195.818ZM187.201 206H186.227L189.931 195.818H190.925L194.629 206H193.654L190.463 197.026H190.393L187.201 206ZM187.902 202.097H192.953V202.933H187.902V202.097ZM204.303 195.818V206H203.399L197.383 197.474H197.303V206H196.374V195.818H197.274L203.309 204.354H203.389V195.818H204.303Z" fill="#667085"/>
<path d="M62.3177 194.818H63.2474V202.161C63.2441 202.824 63.1248 203.378 62.8895 203.822C62.6542 204.263 62.3293 204.592 61.9151 204.811C61.5008 205.03 61.0251 205.139 60.4882 205.139C59.9612 205.139 59.4906 205.041 59.0763 204.846C58.662 204.65 58.3355 204.375 58.0969 204.021C57.8615 203.666 57.7439 203.25 57.7439 202.773H58.6587C58.6587 203.074 58.7382 203.341 58.8973 203.573C59.0564 203.802 59.2735 203.981 59.5486 204.11C59.827 204.239 60.1402 204.304 60.4882 204.304C60.8495 204.304 61.166 204.228 61.4378 204.075C61.7129 203.923 61.9283 203.689 62.0841 203.374C62.2399 203.056 62.3177 202.652 62.3177 202.161V194.818ZM72.7382 194.818H73.6679V201.56C73.6679 202.252 73.5055 202.872 73.1807 203.419C72.8559 203.963 72.4034 204.392 71.8234 204.707C71.2467 205.018 70.5756 205.174 69.8099 205.174C69.0476 205.174 68.3765 205.017 67.7964 204.702C67.2164 204.387 66.764 203.958 66.4392 203.414C66.1144 202.871 65.952 202.252 65.952 201.56V194.818H66.8817V201.495C66.8817 202.035 67.0026 202.518 67.2446 202.942C67.4865 203.363 67.8263 203.694 68.2638 203.936C68.7046 204.178 69.22 204.299 69.8099 204.299C70.3999 204.299 70.9153 204.178 71.3561 203.936C71.7969 203.694 72.1366 203.363 72.3753 202.942C72.6172 202.518 72.7382 202.035 72.7382 201.495V194.818ZM76.37 205V194.818H77.2996V204.165H82.1519V205H76.37Z" fill="#667085"/>
<path d="M110.314 96.9294L128.163 88.3328L146.012 96.9294L150.421 116.246L138.068 131.736H118.257L105.905 116.246L110.314 96.9294Z" stroke="#D0D5DD" stroke-width="0.599462" stroke-linecap="round" stroke-linejoin="round"/>
<path d="M97.761 87.8782L127.965 73.3328L158.169 87.8782L165.629 120.562L144.727 146.772H111.203L90.3013 120.562L97.761 87.8782Z" stroke="#D0D5DD" stroke-width="0.599462" stroke-linecap="round" stroke-linejoin="round"/>
<path d="M82.9461 75.1014L128.148 53.3326L173.35 75.1014L184.513 124.016L153.233 163.242H103.063L71.7822 124.016L82.9461 75.1014Z" stroke="#D0D5DD" stroke-width="0.599462" stroke-linecap="round" stroke-linejoin="round"/>
<path d="M68.1312 63.3229L128.331 34.3326L188.53 63.3229L203.398 128.464L161.739 180.702H94.9225L53.2632 128.464L68.1312 63.3229Z" stroke="#D0D5DD" stroke-width="0.599462" stroke-linecap="round" stroke-linejoin="round"/>
<path d="M58.9633 53.9953L128 110.249M128 110.249V20M128 110.249L197.037 53.9953M128 110.249L214 130.687M128 110.249L166.266 192M128 110.249L89.7339 191.798M128 110.249L42 130.687" stroke="#D0D5DD" stroke-width="0.599462" stroke-linecap="round" stroke-linejoin="round"/>
<path d="M17.7742 39.8182H18.8481L22.542 48.6875H22.6315L26.3254 39.8182H27.3992V50H26.5242V41.782H26.4447L23.0093 50H22.1642L18.7288 41.782H18.6492V50H17.7742V39.8182ZM30.1212 50H29.1468L32.8506 39.8182H33.8449L37.5488 50H36.5743L33.3826 41.0263H33.313L30.1212 50ZM30.8222 46.0973H35.8733V46.9325H30.8222V46.0973ZM40.2235 39.8182V50H39.2938V39.8182H40.2235Z" fill="#667085"/>
<path d="M211.676 34.8182H212.75L216.444 43.6875H216.534L220.228 34.8182H221.301V45H220.426V36.782H220.347L216.912 45H216.066L212.631 36.782H212.551V45H211.676V34.8182ZM224.023 45H223.049L226.753 34.8182H227.747L231.451 45H230.477L227.285 36.0263H227.215L224.023 45ZM224.724 41.0973H229.776V41.9325H224.724V41.0973ZM233.196 45V34.8182H236.482C237.205 34.8182 237.808 34.9491 238.292 35.2109C238.779 35.4695 239.145 35.8291 239.391 36.2898C239.639 36.7472 239.763 37.2725 239.763 37.8658C239.763 38.459 239.639 38.9827 239.391 39.4368C239.145 39.8909 238.781 40.2455 238.297 40.5007C237.813 40.7559 237.213 40.8835 236.497 40.8835H233.698V40.0334H236.472C237.003 40.0334 237.443 39.9455 237.795 39.7699C238.149 39.5942 238.413 39.344 238.585 39.0192C238.761 38.6944 238.849 38.3099 238.849 37.8658C238.849 37.4216 238.761 37.0339 238.585 36.7024C238.41 36.3677 238.144 36.1091 237.79 35.9268C237.438 35.7446 236.994 35.6534 236.457 35.6534H234.126V45H233.196ZM237.685 40.4062L240.191 45H239.117L236.636 40.4062H237.685Z" fill="#667085"/>
<path d="M52.4478 51.5318L128.118 15.3173L203.789 51.5318L222.477 132.902L170.112 198.157H86.1239L33.7595 132.902L52.4478 51.5318Z" stroke="#D0D5DD" stroke-width="0.599462" stroke-linecap="round" stroke-linejoin="round"/>
<path d="M96.8252 11.0001H95.8508L99.5546 0.818237H100.549L104.253 11.0001H103.278L100.087 2.02634H100.017L96.8252 11.0001ZM97.5262 7.09736H102.577V7.93259H97.5262V7.09736ZM105.998 11.0001V0.818237H109.433C110.096 0.818237 110.648 0.93424 111.089 1.16625C111.533 1.39826 111.866 1.71479 112.088 2.11583C112.31 2.51687 112.421 2.9726 112.421 3.48301C112.421 3.90726 112.35 4.27018 112.207 4.57179C112.065 4.8734 111.871 5.11701 111.626 5.30262C111.38 5.48822 111.107 5.62246 110.805 5.70532V5.78486C111.133 5.80806 111.452 5.92407 111.76 6.13287C112.068 6.33836 112.322 6.62672 112.521 6.99793C112.719 7.36914 112.819 7.81327 112.819 8.33032C112.819 8.84405 112.704 9.30309 112.476 9.70745C112.247 10.1085 111.896 10.4251 111.422 10.6571C110.951 10.8858 110.351 11.0001 109.622 11.0001H105.998ZM106.927 10.1649H109.622C110.408 10.1649 110.988 9.99083 111.362 9.64282C111.74 9.2948 111.929 8.8573 111.929 8.33032C111.929 7.94253 111.834 7.59121 111.646 7.27634C111.46 6.95816 111.196 6.70626 110.855 6.52066C110.517 6.33505 110.119 6.24225 109.662 6.24225H106.927V10.1649ZM106.927 5.41696H109.518C109.919 5.41696 110.27 5.3341 110.572 5.16838C110.873 5.00266 111.109 4.77397 111.278 4.4823C111.447 4.19064 111.531 3.85754 111.531 3.48301C111.531 2.94277 111.355 2.50361 111.004 2.16554C110.653 1.82416 110.129 1.65347 109.433 1.65347H106.927V5.41696ZM115.062 11.0001V0.818237H118.348C119.071 0.818237 119.674 0.949155 120.158 1.211C120.645 1.46952 121.012 1.82913 121.257 2.28983C121.505 2.74722 121.63 3.27255 121.63 3.86583C121.63 4.4591 121.505 4.98278 121.257 5.43685C121.012 5.89092 120.647 6.24556 120.163 6.50077C119.679 6.75598 119.079 6.88358 118.363 6.88358H115.564V6.03344H118.339C118.869 6.03344 119.31 5.94561 119.661 5.76995C120.016 5.59428 120.279 5.34405 120.451 5.01924C120.627 4.69443 120.715 4.30996 120.715 3.86583C120.715 3.4217 120.627 3.03391 120.451 2.70247C120.276 2.36772 120.011 2.1092 119.656 1.92691C119.305 1.74461 118.861 1.65347 118.324 1.65347H115.992V11.0001H115.062ZM119.552 6.40631L122.057 11.0001H120.983L118.503 6.40631H119.552Z" fill="#667085"/>
<path opacity="0.2" d="M194.19 72.8346L134.612 64.4421L73.9626 72.8346L78.1752 133.081L109.168 171.746L167.542 189.13L171.453 128.884L194.19 72.8346Z" fill="#065986"/>
<path d="M194.19 72.8346L134.612 64.4421L73.9626 72.8346L78.1752 133.081L109.168 171.746L167.542 189.13L171.453 128.884L194.19 72.8346Z" stroke="#065986" stroke-width="1.19892" stroke-linecap="round" stroke-linejoin="round"/>
<path opacity="0.2" d="M209.366 60.8455L134.612 83.625L58.9177 60.8455V137.277H126.018L158.816 171.746L152.497 124.388L209.366 60.8455Z" fill="#027A48"/>
<path d="M209.366 60.8455L134.612 83.625L58.9177 60.8455V137.277H126.018L158.816 171.746L152.497 124.388L209.366 60.8455Z" stroke="#027A48" stroke-width="1.19892" stroke-linecap="round" stroke-linejoin="round"/>
<path opacity="0.2" d="M178.976 84.8239L134.612 45.2594L104.353 96.8132L40.864 141.773L117.593 154.661L142.567 137.277L189.808 132.781L178.976 84.8239Z" fill="#B42318"/>
<path d="M178.976 84.824L134.612 65.3414L104.353 96.8132L101.043 127.686L117.593 154.661L142.567 137.277L189.808 132.781L178.976 84.824Z" stroke="#B42318" stroke-width="1.19892" stroke-linecap="round" stroke-linejoin="round"/>
<path d="M5.9369 123.818H6.86659V131.161C6.86327 131.824 6.74396 132.378 6.50863 132.822C6.27331 133.263 5.9485 133.592 5.5342 133.811C5.1199 134.03 4.64429 134.139 4.10735 134.139C3.58037 134.139 3.10972 134.041 2.69542 133.846C2.28112 133.65 1.95466 133.375 1.71602 133.021C1.4807 132.666 1.36304 132.25 1.36304 131.773H2.27781C2.27781 132.074 2.35735 132.341 2.51645 132.573C2.67554 132.802 2.89263 132.981 3.16772 133.11C3.44613 133.239 3.75934 133.304 4.10735 133.304C4.46862 133.304 4.78515 133.228 5.05693 133.075C5.33202 132.923 5.54746 132.689 5.70323 132.374C5.85901 132.056 5.9369 131.652 5.9369 131.161V123.818ZM16.3573 123.818H17.287V130.56C17.287 131.252 17.1246 131.872 16.7998 132.419C16.475 132.963 16.0226 133.392 15.4426 133.707C14.8659 134.018 14.1947 134.174 13.4291 134.174C12.6668 134.174 11.9956 134.017 11.4156 133.702C10.8356 133.387 10.3831 132.958 10.0583 132.414C9.73354 131.871 9.57113 131.252 9.57113 130.56V123.818H10.5008V130.495C10.5008 131.035 10.6218 131.518 10.8637 131.942C11.1057 132.363 11.4454 132.694 11.8829 132.936C12.3237 133.178 12.8391 133.299 13.4291 133.299C14.019 133.299 14.5344 133.178 14.9752 132.936C15.4161 132.694 15.7558 132.363 15.9944 131.942C16.2364 131.518 16.3573 131.035 16.3573 130.495V123.818ZM27.9188 123.818V134H27.0139L20.9983 125.474H20.9188V134H19.9891V123.818H20.8889L26.9245 132.354H27.004V123.818H27.9188Z" fill="#667085"/>
</g>
<defs>
<clipPath id="clip0_6531_2305">
<rect width="272" height="223" fill="white"/>
</clipPath>
</defs>
</svg>
